<svg id="visual" viewBox="0 0 900 80" width="900" height="80" xmlns="http://www.w3.org/2000/svg" xmlns:xlink="http://www.w3.org/1999/xlink" version="1.1"><path d="M0 7L15 7.8C30 8.7 60 10.3 90 10.3C120 10.3 150 8.7 180 8.7C210 8.7 240 10.3 270 10.3C300 10.3 330 8.7 360 9C390 9.3 420 11.7 450 12.2C480 12.7 510 11.3 540 11C570 10.7 600 11.3 630 11.8C660 12.3 690 12.7 720 12.7C750 12.7 780 12.3 810 12C840 11.7 870 11.3 885 11.2L900 11L900 0L885 0C870 0 840 0 810 0C780 0 750 0 720 0C690 0 660 0 630 0C600 0 570 0 540 0C510 0 480 0 450 0C420 0 390 0 360 0C330 0 300 0 270 0C240 0 210 0 180 0C150 0 120 0 90 0C60 0 30 0 15 0L0 0Z" fill="#ffdd78"></path><path d="M0 35L15 34.5C30 34 60 33 90 33.2C120 33.3 150 34.7 180 35.8C210 37 240 38 270 36.5C300 35 330 31 360 30.3C390 29.7 420 32.3 450 33.5C480 34.7 510 34.3 540 35.7C570 37 600 40 630 40.8C660 41.7 690 40.3 720 37.8C750 35.3 780 31.7 810 31.5C840 31.3 870 34.7 885 36.3L900 38L900 9L885 9.2C870 9.3 840 9.7 810 10C780 10.3 750 10.7 720 10.7C690 10.7 660 10.3 630 9.8C600 9.3 570 8.7 540 9C510 9.3 480 10.7 450 10.2C420 9.7 390 7.3 360 7C330 6.7 300 8.3 270 8.3C240 8.3 210 6.7 180 6.7C150 6.7 120 8.3 90 8.3C60 8.3 30 6.7 15 5.8L0 5Z" fill="#ffd558"></path><path d="M0 50L15 51C30 52 60 54 90 55.7C120 57.3 150 58.7 180 60C210 61.3 240 62.7 270 61.2C300 59.7 330 55.3 360 54.3C390 53.3 420 55.7 450 57.3C480 59 510 60 540 59.5C570 59 600 57 630 56.7C660 56.3 690 57.7 720 58C750 58.3 780 57.7 810 58C840 58.3 870 59.7 885 60.3L900 61L900 36L885 34.3C870 32.7 840 29.3 810 29.5C780 29.7 750 33.3 720 35.8C690 38.3 660 39.7 630 38.8C600 38 570 35 540 33.7C510 32.3 480 32.7 450 31.5C420 30.3 390 27.7 360 28.3C330 29 300 33 270 34.5C240 36 210 35 180 33.8C150 32.7 120 31.3 90 31.2C60 31 30 32 15 32.5L0 33Z" fill="#ffcc31"></path><path d="M0 65L15 66C30 67 60 69 90 70.2C120 71.3 150 71.7 180 72.3C210 73 240 74 270 73.8C300 73.7 330 72.3 360 72.2C390 72 420 73 450 72.8C480 72.7 510 71.3 540 70.7C570 70 600 70 630 70C660 70 690 70 720 70C750 70 780 70 810 70.3C840 70.7 870 71.3 885 71.7L900 72L900 59L885 58.3C870 57.7 840 56.3 810 56C780 55.7 750 56.3 720 56C690 55.7 660 54.3 630 54.7C600 55 570 57 540 57.5C510 58 480 57 450 55.3C420 53.7 390 51.3 360 52.3C330 53.3 300 57.7 270 59.2C240 60.7 210 59.3 180 58C150 56.7 120 55.3 90 53.7C60 52 30 50 15 49L0 48Z" fill="#dfb128"></path><path d="M0 81L15 81C30 81 60 81 90 81C120 81 150 81 180 81C210 81 240 81 270 81C300 81 330 81 360 81C390 81 420 81 450 81C480 81 510 81 540 81C570 81 600 81 630 81C660 81 690 81 720 81C750 81 780 81 810 81C840 81 870 81 885 81L900 81L900 70L885 69.7C870 69.3 840 68.7 810 68.3C780 68 750 68 720 68C690 68 660 68 630 68C600 68 570 68 540 68.7C510 69.3 480 70.7 450 70.8C420 71 390 70 360 70.2C330 70.3 300 71.7 270 71.8C240 72 210 71 180 70.3C150 69.7 120 69.3 90 68.2C60 67 30 65 15 64L0 63Z" fill="#c0971f"></path></svg>